<?xml version="1.0" standalone="no"?>
<!DOCTYPE svg PUBLIC "-//W3C//DTD SVG 20010904//EN"
 "http://www.w3.org/TR/2001/REC-SVG-20010904/DTD/svg10.dtd">
<svg version="1.0" xmlns="http://www.w3.org/2000/svg"
 width="300.000000pt" height="305.000000pt" viewBox="0 0 300.000000 305.000000"
 preserveAspectRatio="xMidYMid meet">
<metadata>
Created by potrace 1.10, written by Peter Selinger 2001-2011
</metadata>
<g transform="translate(0.000000,305.000000) scale(0.100000,-0.100000)"
fill="#000000" stroke="none">
<path d="M1345 2955 c-5 -2 -29 -9 -53 -15 -97 -25 -169 -138 -159 -251 l5
-55 -60 -27 c-91 -40 -59 -76 37 -43 43 14 46 14 88 -10 l44 -24 -15 -53 c-9
-32 -15 -99 -15 -177 -1 -120 0 -129 36 -225 20 -54 33 -102 29 -106 -4 -4
-35 -30 -68 -57 -77 -64 -195 -219 -256 -337 -88 -173 -167 -425 -183 -583 -7
-67 -5 -75 15 -97 12 -13 34 -28 48 -34 l27 -11 -3 -228 c-2 -168 1 -233 10
-252 7 -13 39 -39 71 -58 57 -34 57 -34 57 -82 0 -40 4 -52 26 -69 55 -44 146
-50 186 -14 22 20 23 71 2 102 -14 19 -14 25 -3 32 8 5 19 9 25 9 5 0 23 13
39 30 26 27 28 32 17 67 -26 91 -23 281 6 291 9 3 12 -19 12 -89 0 -51 5 -121
11 -157 11 -62 13 -65 53 -83 22 -10 60 -19 84 -19 32 0 52 -7 78 -27 l34 -28
0 -91 c0 -69 4 -95 15 -104 33 -27 70 51 63 133 l-3 41 63 -3 c78 -3 112 15
112 58 0 22 -10 38 -38 63 -35 30 -39 40 -50 108 -6 41 -18 108 -26 147 l-14
73 35 6 c33 6 35 8 29 38 -4 17 -9 74 -12 126 l-6 95 58 -4 c74 -4 131 13 172
52 75 71 94 153 62 267 -22 75 -69 264 -94 373 l-13 57 32 20 c81 50 165 177
165 250 0 19 11 57 25 84 26 52 32 114 15 147 -10 18 -3 43 46 156 25 57 18
140 -20 219 -87 182 -261 289 -466 287 -47 -1 -107 -8 -134 -17 -51 -16 -66
-14 -66 8 0 19 -51 63 -92 80 -36 15 -62 19 -83 11z m96 -35 c40 -21 83 -76
72 -93 -3 -5 -15 5 -26 22 -23 38 -84 71 -127 71 -18 0 -29 4 -25 10 10 17 63
11 106 -10z m-42 -26 c39 -15 98 -71 87 -82 -3 -2 -21 9 -41 26 -38 34 -98 54
-154 52 -48 -2 -53 -2 -47 8 10 16 112 13 155 -4z m-4 -43 c43 -19 72 -47 61
-58 -8 -8 -149 -5 -181 3 -11 3 -37 12 -58 21 -36 15 -36 17 -20 34 25 25 143
25 198 0z m447 -29 c61 -32 148 -123 182 -189 33 -67 43 -125 23 -141 -12 -10
-16 -5 -26 34 -16 64 -35 98 -84 152 -51 55 -125 111 -195 146 -29 14 -52 28
-52 30 0 12 114 -11 152 -32z m-147 8 c71 -30 191 -117 235 -170 63 -75 98
-168 70 -185 -5 -3 -10 2 -10 12 0 38 -50 123 -104 177 -68 68 -143 119 -221
151 -41 16 -52 24 -39 28 11 3 20 5 21 6 1 0 22 -8 48 -19z m211 -9 c27 -15
97 -85 128 -129 39 -54 63 -129 51 -158 -6 -15 -10 -8 -19 31 -7 28 -24 71
-40 97 -28 47 -118 142 -158 166 l-23 13 25 -7 c14 -3 30 -9 36 -13z m-206
-42 c133 -68 234 -169 268 -266 10 -30 9 -33 -8 -33 -10 0 -39 9 -65 20 -26
11 -64 23 -86 26 -34 6 -42 12 -57 48 -34 75 -116 142 -224 181 l-63 23 53 25
c61 29 87 25 182 -24z m-487 16 c22 -9 68 -15 116 -15 44 0 82 -4 85 -9 3 -4
-34 -11 -82 -14 -72 -5 -93 -3 -121 11 -19 10 -37 24 -39 30 -5 15 -2 15 41
-3z m868 -93 c52 -59 66 -90 61 -141 -4 -39 -19 -55 -26 -28 -28 100 -43 136
-87 193 -42 56 -45 63 -20 45 16 -12 49 -43 72 -69z m-784 39 l95 -3 -38 -39
c-43 -45 -84 -51 -153 -23 -45 18 -50 26 -43 72 4 32 5 32 24 15 16 -14 41
-19 115 -22z m273 -22 c71 -33 119 -73 156 -131 29 -45 30 -58 7 -58 -10 0
-33 23 -51 50 -52 75 -139 133 -221 146 -41 7 -52 18 -28 28 21 9 69 -3 137
-35z m-35 -34 c48 -23 166 -133 165 -153 -1 -4 -22 -17 -47 -29 l-47 -22 -30
26 c-40 34 -122 70 -198 88 -33 7 -62 16 -64 18 -3 2 14 28 37 57 41 52 42 52
85 46 25 -3 69 -17 99 -31z m-274 -42 c50 -7 51 -23 0 -23 -26 0 -41 5 -45 16
-4 11 -13 14 -31 10 -20 -5 -25 -3 -25 13 0 18 2 19 31 4 16 -8 48 -17 70 -20z
m-56 -22 c-9 -8 -144 -51 -161 -51 -18 0 8 13 72 35 72 26 105 32 89 16z m62
-42 c-14 -23 -25 -23 -52 -3 -25 19 -8 32 35 26 26 -4 27 -6 17 -23z m150 -14
c73 -23 173 -77 173 -94 0 -20 -15 -17 -52 9 -51 37 -133 68 -202 76 -40 5
-53 10 -49 20 8 20 42 17 130 -11z m762 -30 c0 -11 -6 -31 -13 -44 -19 -34
-27 -5 -13 47 11 41 27 40 26 -3z m-791 -5 c51 -12 118 -43 150 -70 l24 -20
-22 -35 c-12 -20 -25 -34 -29 -32 -75 41 -170 57 -235 39 l-38 -11 6 31 c20
101 24 108 64 108 20 0 56 -5 80 -10z m742 -51 c16 -29 24 -64 28 -113 l4 -71
-29 28 c-33 31 -48 34 -57 11 -10 -25 -7 -34 11 -34 20 0 53 -28 53 -46 0 -9
-9 -12 -28 -8 -38 8 -81 -29 -113 -96 -20 -42 -28 -50 -51 -50 -27 0 -28 2
-28 56 0 48 -4 59 -29 85 -58 58 -141 28 -195 -72 l-30 -56 -96 5 c-52 2 -97
6 -99 8 -7 6 17 108 40 168 25 67 89 143 158 188 60 38 135 39 214 2 31 -14
72 -28 90 -31 39 -6 91 17 107 47 15 29 23 25 50 -21z m66 -45 c-4 -13 -10
-24 -15 -24 -17 0 -17 44 -2 73 l16 29 3 -27 c2 -15 1 -38 -2 -51z m-726 -59
c44 -22 43 -22 36 -34 -4 -6 -19 -5 -41 5 -39 16 -144 19 -194 4 -41 -11 -42
-11 -35 17 7 27 29 32 124 29 48 -2 88 -9 110 -21z m723 10 c-3 -9 -8 -14 -10
-11 -3 3 -2 9 2 15 9 16 15 13 8 -4z m-720 -60 c20 -8 21 -12 6 -54 -10 -28
-15 -31 -38 -27 -92 18 -126 17 -197 -11 -11 -4 -14 5 -14 41 0 31 5 48 14 52
52 20 182 20 229 -1z m655 -15 c12 -12 22 -24 22 -27 0 -4 -10 3 -22 14 -13
11 -30 23 -38 26 -13 5 -13 6 1 6 8 1 25 -8 37 -19z m-256 -79 c28 -25 32 -34
32 -82 0 -118 -92 -206 -179 -173 -22 9 -45 57 -45 96 1 61 52 145 107 173 39
21 48 19 85 -14z m-438 -1 c14 -5 26 -15 26 -21 0 -7 -7 -8 -17 -4 -35 14
-132 17 -164 6 -44 -15 -50 -5 -8 13 39 17 126 21 163 6z m690 -22 c-16 -50
-24 -95 -24 -139 0 -51 -11 -66 -58 -75 -24 -5 -32 -2 -41 14 -36 67 37 222
104 222 23 0 25 -3 19 -22z m12 -128 l-15 -35 -1 45 c0 25 6 63 13 85 l12 40
3 -50 c2 -30 -3 -65 -12 -85z m-708 114 c16 -5 22 -14 22 -35 0 -35 -2 -35
-48 -4 -49 33 -78 32 -113 -6 -20 -21 -30 -27 -33 -17 -2 7 -6 20 -9 28 -2 8
5 20 17 27 22 13 125 17 164 7z m-20 -64 c35 -25 51 -30 101 -30 32 0 79 -3
105 -6 40 -6 46 -10 46 -31 0 -32 25 -78 52 -97 53 -37 140 -4 179 68 20 38
29 46 51 46 21 0 28 -5 28 -19 0 -11 3 -26 6 -35 4 -12 0 -16 -15 -16 -12 0
-21 -4 -21 -9 0 -5 9 -7 21 -4 23 6 40 -12 32 -33 -2 -7 -18 -18 -35 -25 -28
-11 -32 -10 -49 12 -15 19 -19 21 -19 7 0 -10 11 -25 24 -33 28 -19 69 -7 86
25 6 11 18 20 28 20 9 0 29 7 45 14 26 14 27 14 27 -10 0 -61 -68 -163 -144
-215 -48 -33 -51 -34 -155 -34 -103 0 -110 1 -183 37 -55 28 -92 55 -137 103
-33 36 -61 70 -61 75 0 5 -14 7 -30 3 -22 -4 -36 0 -52 13 -66 59 -62 204 6
204 13 0 42 -13 64 -30z m-78 -201 c18 -14 38 -20 54 -17 14 3 26 2 26 -1 0
-3 13 -20 29 -38 24 -28 29 -43 34 -116 4 -47 18 -124 32 -172 28 -97 27 -102
-33 -137 -26 -16 -31 -16 -42 -3 -9 11 -10 29 -1 79 17 97 15 208 -4 266 -9
27 -21 50 -27 50 -6 0 -7 -8 -3 -17 22 -53 27 -98 23 -191 -3 -56 -7 -105 -10
-108 -3 -3 -21 4 -39 15 -19 12 -47 21 -64 20 -29 0 -29 -1 10 -15 45 -16 85
-56 85 -84 0 -11 13 -29 29 -41 l29 -21 -34 -30 c-41 -36 -98 -149 -120 -238
-16 -61 -15 -131 2 -173 6 -17 3 -17 -36 3 -97 49 -215 191 -256 308 -27 78
-30 155 -9 226 32 107 166 314 240 372 20 16 25 24 14 24 -36 0 -171 -173
-229 -295 -63 -132 -76 -243 -40 -335 31 -79 116 -205 173 -256 127 -115 275
-135 331 -45 31 49 56 125 63 193 3 34 10 55 16 51 9 -6 6 -119 -10 -314 l-6
-76 -93 -7 c-151 -11 -283 14 -415 78 -89 44 -90 46 -96 130 -7 89 -21 95 -43
18 -8 -29 -18 -52 -23 -52 -4 0 -23 15 -43 33 l-36 32 25 110 c71 316 241 629
412 759 26 20 49 36 51 36 3 0 18 -10 34 -21z m196 -137 c26 -23 33 -38 43
-101 6 -40 16 -82 22 -93 9 -16 7 -26 -8 -46 -30 -40 -39 -37 -57 20 -25 81
-51 248 -39 248 5 -1 22 -13 39 -28z m130 -72 l25 -10 -33 -61 -32 -62 -13 30
c-6 17 -15 54 -19 82 l-7 52 27 -11 c14 -5 38 -14 52 -20z m88 -44 c-28 -91
-176 -296 -214 -296 -18 0 -60 27 -60 39 0 4 20 22 44 39 51 37 138 147 163
208 15 36 20 40 45 36 24 -4 28 -8 22 -26z m195 -126 c17 -80 40 -172 52 -205
27 -75 36 -180 19 -229 -13 -40 -60 -100 -92 -117 -18 -10 -19 -9 -4 13 26 40
49 157 43 224 -8 84 -32 138 -81 181 -37 32 -39 35 -14 29 14 -3 34 -9 45 -13
16 -6 16 -5 4 10 -16 20 -90 23 -123 6 -11 -6 -22 -9 -24 -6 -10 10 19 104 39
126 18 20 19 23 5 18 -14 -5 -18 -1 -18 16 0 12 -7 35 -15 51 -20 37 -21 36
23 37 20 1 51 5 67 8 17 4 33 5 37 2 4 -4 21 -71 37 -151z m-170 44 c1 -17 -6
-54 -14 -82 -14 -46 -19 -52 -43 -52 -32 0 -115 -49 -134 -80 -7 -11 -16 -20
-21 -20 -4 0 16 27 45 60 62 71 124 162 140 208 10 27 14 30 19 15 4 -10 8
-32 8 -49z m17 -176 c33 -15 50 -31 60 -54 17 -41 17 -47 2 -42 -7 3 -21 -6
-33 -19 -18 -22 -23 -23 -50 -13 -27 10 -32 9 -51 -14 -12 -13 -24 -30 -26
-37 -6 -17 -38 -3 -38 16 0 9 14 30 30 47 17 17 29 33 26 36 -11 10 -53 -27
-66 -57 -7 -17 -18 -31 -25 -31 -38 0 -12 81 35 108 29 17 39 32 21 32 -17 0
-72 -53 -84 -79 l-11 -26 -4 28 c-4 36 18 70 66 101 46 31 89 32 148 4z m78
-9 c63 -50 92 -179 67 -301 -17 -82 -47 -122 -93 -126 l-37 -3 25 44 c13 25
31 76 39 114 27 124 15 224 -30 269 -30 30 -8 32 29 3z m-362 -42 l37 -13 -34
-27 c-45 -36 -92 -134 -113 -235 -15 -76 -15 -86 -1 -127 16 -45 16 -45 -6
-45 -94 0 -101 167 -14 340 22 44 52 88 66 100 14 11 26 20 27 20 0 0 18 -6
38 -13z m73 -98 c25 -32 83 -61 106 -54 14 5 20 -1 25 -19 14 -56 -17 -89 -32
-34 -8 28 -15 33 -44 36 -19 2 -40 10 -46 18 -9 11 -21 12 -68 3 -31 -7 -59
-9 -62 -6 -9 9 23 62 58 98 l33 32 5 -24 c3 -14 14 -36 25 -50z m280 -41 c-15
-181 -85 -294 -130 -208 -20 39 -20 90 1 90 9 0 32 16 51 35 31 31 35 40 31
77 -4 43 13 75 40 77 9 1 11 -16 7 -71z m-73 28 c11 -16 10 -84 -2 -91 -6 -4
-10 7 -10 25 0 34 -15 70 -30 70 -4 0 -1 -18 7 -39 17 -43 11 -91 -10 -91 -9
0 -12 10 -9 29 2 16 -3 39 -12 53 -14 22 -14 26 0 46 16 24 50 22 66 -2z
m-248 -118 c-26 -111 -69 -188 -104 -188 -35 0 -40 80 -12 175 18 58 19 59 57
63 22 2 42 6 44 8 2 2 10 4 17 4 9 0 9 -14 -2 -62z m124 13 c2 -13 11 -25 21
-28 16 -4 16 -12 5 -93 -7 -49 -15 -169 -18 -267 -9 -245 -16 -369 -27 -427
-5 -27 -9 -79 -9 -116 0 -66 -15 -130 -30 -130 -21 0 -16 1013 6 1078 7 23 49
10 52 -17z m-721 -222 c2 -69 8 -117 15 -126 29 -35 225 -113 284 -113 l25 0
-3 -105 -3 -105 -35 -7 c-103 -23 -298 3 -331 44 -27 32 14 524 43 523 2 0 4
-50 5 -111z m-54 -8 c-8 -51 -14 -54 -51 -25 -28 23 -32 31 -32 75 l0 50 44
-31 c41 -30 44 -35 39 -69z m830 -8 c-4 -60 -10 -83 -20 -87 -13 -5 -14 6 -8
76 8 101 14 127 25 107 4 -8 5 -51 3 -96z m-658 -51 c100 -51 165 -64 343 -69
l162 -5 0 -38 0 -39 -57 -7 c-82 -10 -246 2 -332 25 -41 11 -104 35 -140 53
l-66 33 -3 55 c-3 52 -2 53 15 38 10 -9 45 -30 78 -46z m670 -119 c-2 -7 -14
-13 -25 -13 -17 0 -20 6 -20 39 0 30 4 40 18 43 12 3 19 -5 24 -27 4 -16 5
-36 3 -42z m-155 -147 c0 -71 -3 -85 -17 -91 -30 -11 -148 -18 -187 -11 l-36
7 0 87 0 87 120 2 120 2 0 -83z m120 -40 c-7 -7 -10 4 -9 30 1 39 1 39 10 9 5
-18 5 -33 -1 -39z m27 -72 c10 -55 10 -55 -19 -70 l-28 -15 0 64 c0 35 3 67 7
70 17 18 31 2 40 -49z m-682 -33 c44 -7 96 -7 144 -1 41 6 75 9 76 7 2 -1 6
-27 9 -58 7 -56 7 -57 -26 -80 -66 -47 -211 -35 -309 27 -31 19 -37 29 -43 70
-12 87 -12 86 38 64 24 -11 74 -24 111 -29z m535 -27 l0 -66 -95 4 c-109 5
-129 16 -138 81 l-6 37 62 -5 c34 -3 85 -2 112 3 28 6 53 10 58 11 4 0 7 -29
7 -65z m150 -39 c0 -8 -3 -15 -7 -15 -5 0 -18 -3 -30 -6 -13 -4 -23 -2 -23 3
0 9 35 31 53 32 4 1 7 -6 7 -14z m59 -34 c17 -16 31 -34 31 -39 0 -19 -44 -42
-80 -42 -57 0 -80 10 -80 34 0 29 11 40 40 44 14 2 29 10 35 18 14 19 18 18
54 -15z m-209 -31 c0 -18 -2 -19 -20 -8 -11 7 -20 16 -20 20 0 5 9 8 20 8 13
0 20 -7 20 -20z m-463 -83 c27 0 57 2 67 4 15 3 22 -4 30 -30 8 -28 7 -36 -9
-47 -38 -28 -146 -10 -165 26 -6 10 -10 33 -10 51 0 31 0 32 20 14 13 -12 36
-18 67 -18z m58 23 c-8 -13 -85 -13 -105 0 -11 7 4 10 48 10 40 0 61 -4 57
-10z"/>
<path d="M1739 2323 c-36 -35 -50 -55 -46 -67 10 -27 30 -19 82 34 46 46 48
51 33 66 -15 16 -20 13 -69 -33z m61 19 c0 -4 -20 -28 -45 -52 -54 -53 -61
-32 -8 22 36 37 53 46 53 30z"/>
<path d="M1810 2103 c-20 -8 -40 -36 -33 -46 3 -5 13 -1 23 8 12 11 26 14 39
10 23 -7 28 4 9 23 -13 13 -16 13 -38 5z"/>
<path d="M2020 2085 c-16 -19 -5 -32 13 -17 10 9 16 9 25 0 6 -6 15 -9 18 -5
9 9 -15 37 -31 37 -7 0 -18 -7 -25 -15z"/>
<path d="M1330 2080 c-12 -7 -8 -10 15 -11 17 0 24 -3 18 -6 -21 -8 -15 -25 6
-18 14 4 21 0 26 -15 7 -22 25 -27 25 -6 0 17 -45 66 -62 66 -7 0 -20 -5 -28
-10z"/>
<path d="M1838 1893 c-28 -7 -21 -17 25 -36 34 -14 50 -15 70 -8 38 15 35 33
-2 20 -32 -11 -77 4 -66 22 6 9 2 10 -27 2z"/>
<path d="M1254 1495 c-23 -17 -17 -19 24 -4 22 8 36 7 52 -1 25 -13 42 -4 20
10 -23 15 -74 12 -96 -5z"/>
</g>
</svg>
